# xmcd CD database file
#
# Track frame offsets:
#	150
#	19068
#	36946
#	53982
#	75330
#	92998
#	112032
#	122594
#
# Disc length: 1890 seconds
#
# Revision: 1
# Processed by: cddbd v1.5.2PL0 Copyright (c) Steve Scherf et al.
# Submitted via: CDex 1.70beta2
#
DISCID=60076008
DTITLE=ANA ORQUESTA SAGITARIO - QUE SIGA EL BAILE EN EL 2000
DYEAR=2000
DGENRE=Salsa
TTITLE0=OYE
TTITLE1=POR AMOR
TTITLE2=CORAZON SALVAJE
TTITLE3=PIEL MORENA
TTITLE4=CONTIGO
TTITLE5=MI CORAZON
TTITLE6=CUANDO DECIDAS TU VOLVER
TTITLE7=PIENSA EN MI
EXTD=YEAR: 2000
EXTT0=
EXTT1=
EXTT2=
EXTT3=
EXTT4=
EXTT5=
EXTT6=
EXTT7=
PLAYORDER=
